<svg t="1586184264686" class="icon" viewBox="0 0 1024 1024" version="1.1" xmlns="http://www.w3.org/2000/svg" p-id="3454" width="64" height="64"><path d="M377.217782 696.499038l-203.850781 94.881974C147.100778 813.091476 155.958516 895.836015 155.958516 895.836015l348.307847 0 18.275225 0 347.19449 0c0 0 8.7902-82.743516-17.425881-104.455004l-203.094558-94.881974c-44.61001-23.938202-54.470589-47.653323-54.470589-47.653323l0-43.25106c72.15332-43.148729 109.657492-158.602228 109.657492-217.765699l0-89.034802c0-82.182744-109.571534-168.95604-186.093349-168.95604l-28.103058 0c-72.882937 0-186.075953 88.813768-186.075953 168.95604l0 89.034802c0 73.971735 66.959018 183.762257 127.898949 221.437321l0 39.579437C432.029132 648.845715 426.163541 668.209738 377.217782 696.499038z" p-id="3455" fill="#FFB6C1"></path></svg>